<svg width="168px" height="44px" viewBox="0 0 168 44" version="1.1" xmlns="http://www.w3.org/2000/svg" xmlns:xlink="http://www.w3.org/1999/xlink">
    <!-- Generator: Sketch 57.1 (83088) - https://sketch.com -->
    <title>Brand Elements / logo / general</title>
    <desc>Created with Sketch.</desc>
    <g stroke="none" stroke-width="1" fill="none" fill-rule="evenodd">
        <path d="M106.25856,19.756839 C107.284916,20.4679237 107.70534,21.365822 108.854187,22.4315169 C110.003221,23.4972119 123.192967,42.7220424 123.192967,42.7220424 C123.192967,42.7220424 114.210814,45.1877203 110.077611,42.393161 C105.935085,39.5924492 103.297323,35.7452458 101.370831,33.1952966 C99.2515599,30.3902966 97.868543,28.8745339 97.2851701,26.2628729 C96.7017972,23.6510254 98.0615091,21.1048051 99.8912379,19.9962288 C101.72078,18.887839 104.265882,18.3762458 106.25856,19.756839 Z M81.6360811,2.57603862 C82.4774083,2.89209414 90.5143639,6.0123488 92.1995718,10.4859831 C93.982504,15.2191525 93.9116565,19.9364746 94.0117752,23.1674915 C94.1219616,26.7214237 94.4829108,36.8837458 93.4382836,39.3809322 C92.9069277,40.6502203 91.9702497,41.6105763 90.8948599,42.2291864 C89.9730972,42.8049153 88.8904362,43.148339 87.7242497,43.1611514 C84.3427752,43.1962542 81.572826,40.4837288 81.5371722,37.1022542 L81.5379754,35.7693152 C81.5419872,30.2228399 81.5594651,9.01863386 81.5638223,3.7433264 L81.5640112,3.51461988 L81.6360811,2.57603862 Z M157.822551,2.24176271 C157.508212,5.027 155.889721,7.44047458 153.614772,9.7189661 C151.340009,11.9974576 149.386484,12.2720847 147.431653,12.6311695 C146.664636,12.7719322 145.600806,12.8034407 144.360229,12.797661 C144.360229,12.797661 142.369043,12.7641017 141.793128,12.7437797 C139.560873,12.9050508 137.409907,13.8920678 136.379077,15.5579153 C134.111585,19.5173559 134.667924,26.060678 136.019806,28.9219831 C137.062755,31.532339 139.183331,32.9392203 142.025433,33.0184576 C144.943043,33.0995593 147.164297,31.8043559 148.398534,29.1582034 C149.064128,27.7308136 149.495365,26.1253729 149.695229,24.5562881 C150.101111,21.3737458 149.944873,19.0935763 148.389026,16.061678 C148.206128,15.7050169 147.921806,15.4264746 147.648297,15.1524068 C150.066246,14.9068644 152.220755,14.1950339 154.777975,11.6329661 C155.68967,10.7195932 156.454263,9.82691525 157.102331,8.94169492 C158.886755,10.9481695 159.943501,12.5715085 160.835246,15.4633898 C162.605687,23.0807966 161.464857,27.6290169 160.840653,29.5941017 C158.370687,37.3709153 153.011077,41.7133051 145.051738,42.7650169 C139.399975,43.5115254 134.171433,42.3880339 129.628246,38.7535593 C125.86606,35.7440339 123.804772,31.670678 123.01706,26.9835593 C122.232518,22.3158305 122.533806,17.6872542 124.526857,13.3103729 C127.547941,6.67476271 132.766975,3.15662712 139.882484,2.38457627 C140.012246,2.37040678 140.579212,2.36108475 141.264382,2.35567797 C141.645094,2.30384746 142.049297,2.27420339 142.493212,2.28333898 C146.591924,2.36779661 157.822551,2.24176271 157.822551,2.24176271 Z M52.184,6.478 L52.1871269,6.74003207 C52.2073155,8.51899623 52.2203452,10.7163074 52.1743565,11.4713034 C52.1892718,15.6975407 52.2220853,22.2984729 52.3016955,27.1684898 C52.325187,28.6066932 52.6715938,30.1778288 53.3416616,31.4359305 C54.4645938,33.5440153 57.7871531,34.3086085 60.6877972,33.4578797 C62.9468989,32.7952695 64.437865,30.7032186 64.4380514,27.9884559 C64.4384243,21.4686254 64.4455091,24.9541339 64.433204,22.0428627 C64.3916277,21.0925746 64.4479328,17.1954051 64.4639667,17.1954051 C64.5422718,15.0220661 64.697204,13.2061339 66.0874921,10.0703881 C67.9709158,5.82252373 75.8801023,2.76247288 75.8801023,2.76247288 C75.8801023,2.76247288 76.0009158,20.1517949 75.959526,28.4508288 C75.923543,35.6683203 70.8199158,41.3935407 63.7001192,42.4978288 C59.0115091,43.2251339 54.3726786,43.2819983 49.8637972,41.6426254 C44.4495599,39.6738119 41.6387803,35.5874051 40.9657294,30.0016424 C40.7873057,28.5207441 40.7436786,23.4186085 40.7327831,20.8522525 C40.731187,20.4679983 40.8044582,17.8856085 40.9125938,16.2300153 C43.077543,15.8343881 45.264865,15.3731339 47.7825599,12.8515237 C49.7787803,10.8519475 51.3448819,8.76343898 52.1840514,6.47655763 L52.184,6.478 Z M16.8245503,2.24300152 L19.3460083,2.24355461 C19.6982776,2.24324388 20.0611119,2.24266384 20.4329989,2.24166949 L20.4378464,2.24346398 L20.4432531,2.24539831 L21.0036938,2.24595763 C29.494742,2.25225409 42.4858507,2.26358456 47.6958857,2.26805684 L48.2327955,2.26851695 C49.7141821,2.2550222 50.7264172,2.24396935 50.9057872,2.24166949 L50.9343209,2.24166949 C50.5599481,5.55975424 48.631965,8.43485593 45.9218633,11.1492458 C43.2119481,13.8634492 40.8846091,14.1906525 38.555965,14.6183475 C37.6422192,14.7861441 36.3747955,14.8236186 34.8968803,14.8167203 C34.8968803,14.8167203 33.5037955,14.7934153 32.5439989,14.7714153 C32.9487616,16.7420932 32.9485752,18.2522627 33.0106599,20.2559407 C33.1221514,23.8473475 33.4870158,36.0515678 32.4312023,38.5748559 C31.8944396,39.8577542 30.9478803,40.8279915 29.8611175,41.4531271 C28.9296599,42.034822 27.8358125,42.3819746 26.6571345,42.3949734 C23.2402362,42.4302627 20.4410158,39.6892119 20.4050328,36.2721271 C20.4042042,36.1912533 20.4047013,34.8947678 20.4060005,32.8321989 L20.406776,31.5569027 C20.4071282,30.9217911 20.40755,30.2365939 20.4080762,29.5103906 L20.4089481,28.3914661 C20.4119311,24.2163136 20.4162192,19.374822 20.4203209,14.9990593 C16.3171345,14.992161 12.1744226,14.8348051 10.820304,14.2682119 C9.53721924,13.7314492 8.56698195,12.7848898 7.94184636,11.6981271 C7.359965,10.7668559 7.0129989,9.67282203 7,8.49433051 C6.96471076,5.07724576 9.70557517,2.27802542 13.1226599,2.24166949 L14.5892038,2.24166949 C15.182901,2.24214902 15.9388621,2.24246871 16.8245503,2.24300152 Z M120.727196,0 C121.168501,2.76789831 120.36606,6.15477966 118.782806,8.95828814 C117.199551,11.7617966 115.65806,12.3943898 113.775009,13.1084576 C111.891958,13.8227119 110.420196,14.3307627 107.398365,15.0852881 C103.949026,15.9464576 101.324501,16.9810169 99.1612294,18.7257288 C96.3728226,20.9745763 96.1347379,24.1090169 96.1347379,24.1090169 C96.1347379,24.1090169 95.0755684,18.0877288 95.5588226,14.9245763 C95.8858396,12.7842373 96.9276701,10.1716441 98.8377548,8.20432203 C100.748026,6.23681356 104.871348,4.80513559 108.843653,3.79127119 C112.815772,2.77740678 120.727196,0 120.727196,0 Z" fill="#C21516"></path>
    </g>
</svg>